<?xml version="1.0" encoding="UTF-8" standalone="no"?>
<svg
   viewBox="0 0 585.56 738.28003"
   version="1.1"
   id="svg39"
   sodipodi:docname="icon.svg"
   inkscape:version="1.2.2 (b0a8486541, 2022-12-01)"
   width="585.56"
   height="738.28003"
   xmlns:inkscape="http://www.inkscape.org/namespaces/inkscape"
   xmlns:sodipodi="http://sodipodi.sourceforge.net/DTD/sodipodi-0.dtd"
   xmlns="http://www.w3.org/2000/svg"
   xmlns:svg="http://www.w3.org/2000/svg"
   xmlns:rdf="http://www.w3.org/1999/02/22-rdf-syntax-ns#"
   xmlns:cc="http://creativecommons.org/ns#"
   xmlns:dc="http://purl.org/dc/elements/1.1/">

  <defs
     id="defs4">
    <style
       id="style2">.cls-1{fill:#3c3c3b;stroke:#3c3c3b;stroke-miterlimit:10;}.cls-2{fill:#96c342;}.cls-3{fill:#bcd259;}.cls-4{fill:#78a972;}.cls-5{fill:#538794;}.cls-6{fill:#3864a3;}.cls-7{fill:#214f8f;}.cls-8{fill:#6fa07f;}.cls-9{fill:#aaca48;}</style>
  </defs>
  <title
     id="title6">CorrelAid_Dach-Icon_darkgrey</title>
  <g
     id="Ebene_2"
     data-name="Ebene 2"
     transform="translate(-307.73,-234.27)">
    <g
       id="_01-c_CorrelAid_ICON"
       data-name="01-c_CorrelAid_ICON">
      <g
         id="Dark_Grey"
         data-name="Dark Grey">
        <g
           id="C_ohne_Outline"
           data-name="C ohne Outline">
          <polygon
             class="cls-2"
             points="685.26,313.99 893.29,239.21 893.29,439.52 "
             id="polygon9" />
          <polygon
             class="cls-3"
             points="553.11,234.27 879.99,234.27 675.14,307.9 "
             id="polygon11" />
          <polygon
             class="cls-4"
             points="318.33,445.89 598.12,345.33 654.95,448.84 545.83,547.09 "
             id="polygon13" />
          <polygon
             class="cls-2"
             points="606.81,342.19 674.13,318 884.95,445.2 663.38,445.2 "
             id="polygon15" />
          <polygon
             class="cls-5"
             points="608,864.89 664.7,761.61 882.83,761.61 672.97,888.24 "
             id="polygon17" />
          <polygon
             class="cls-6"
             points="684.07,892.25 893.29,766.01 893.29,967.44 "
             id="polygon19" />
          <polygon
             class="cls-7"
             points="674,898.34 880.42,972.55 551.01,972.55 "
             id="polygon21" />
          <polygon
             class="cls-6"
             points="538.85,969.16 318.14,770.43 594.82,869.88 541.03,967.86 "
             id="polygon23" />
          <polygon
             class="cls-5"
             points="317.8,760.58 545.24,659.43 655.73,758.91 599.28,861.76 "
             id="polygon25" />
          <polygon
             class="cls-8"
             points="307.73,755.02 307.73,451.22 542.17,555.49 542.17,650.76 "
             id="polygon27" />
          <polygon
             class="cls-3"
             points="539.03,237.72 593.65,337.2 318.83,435.98 "
             id="polygon29" />
          <polygon
             class="cls-9"
             points="553.59,245.25 664.04,311.89 602.35,334.07 "
             id="polygon31" />
          <polygon
             class="cls-6"
             points="603.54,873.02 662.87,894.33 556.64,958.42 "
             id="polygon33" />
        </g>
      </g>
    </g>
  </g>
  <metadata
     id="metadata1625">
    <rdf:RDF>
      <cc:Work
         rdf:about="">
        <dc:title>CorrelAid_Dach-Icon_darkgrey</dc:title>
      </cc:Work>
    </rdf:RDF>
  </metadata>
</svg>
